<svg
        
        xmlns="http://www.w3.org/2000/svg"
        version="1.1"
        xmlnsXlink="http://www.w3.org/1999/xlink"
        width="300"
        height="270"
        x="0"
        y="0"
        viewBox="0 0 511.999 511"
        xmlSpace="preserve">
        <g>
          <path
            d="M24.86 312.969c3.82 1.91 7.933 3.23 12.175 3.969l-6.61 9.437a15.048 15.048 0 0 0-2.55 6.402l-9.84 66.36a14.998 14.998 0 0 0 21.98 15.39l55.575-30.093c7.676 13.867 22.457 23.28 39.398 23.28 11.516 0 22.035-4.347 30-11.484 7.969 7.137 18.489 11.485 30 11.485 24.817 0 45.004-20.188 45.004-45v-5.742c27.903 13.578 58.973 20.742 90 20.742 32.051 0 63.836-7.352 92.004-21.246v36.246c0 5.2 2.691 10.027 7.113 12.762a15.006 15.006 0 0 0 14.594.656l60.004-30A15.003 15.003 0 0 0 512 362.715V182.71c0-8.285-6.719-15-15-15H393.469l-105.817-51.777 40.203-57.414c4.747-6.782 3.102-16.141-3.687-20.891L275.02 3.21c-6.782-4.746-16.141-3.102-20.891 3.684-6.352 9.07-46.883 66.957-53.192 75.964-12.304-6.464-27.058-6.433-36.417-2.37l-57.079 24.796a44.834 44.834 0 0 0-20.043 17.133L5.492 251.246c-5.32 8.371-7.523 22.734-3.203 35.7 3.8 11.402 11.816 20.644 22.57 26.023zm27.253 60.894 4.922-33.18 13.414-19.16a60.424 60.424 0 0 0 22.73 19.844l-11.57 16.524zm82.875 3.856c-8.27 0-15-6.73-15-15.004v-7.332l5.371-7.668h24.63v15c0 8.273-6.727 15.004-15 15.004zm60.004 0c-8.273 0-15-6.73-15-15.004v-15h30v15c0 8.273-6.73 15.004-15 15.004zM482 353.445l-30.004 15V197.711H482zm-98.598-157.261a15.018 15.018 0 0 0 6.594 1.527h32v125.531c-10.11 3.93-41.5 24.473-92 24.473-53.535 0-86.508-23.711-98.297-28.418a15.168 15.168 0 0 0-6.707-1.582H119.988c-15.34 0-28.02-11.574-29.781-26.45.469-2.175.426-4.41-.07-6.546 1.508-15.14 14.32-27.004 29.851-27.004h92.578c31.364 0 60.856-12.215 83.036-34.395 5.855-5.86 5.855-15.355 0-21.215-5.86-5.859-15.356-5.859-21.215 0-16.516 16.512-38.469 25.61-61.82 25.61h-3.18l60.843-86.899zM235.684 85.543l24.574 17.21-87.496 124.962h-36.625l99.547-142.172zm34.414-49.148 24.578 17.207-17.211 24.578-24.574-17.211zM31.293 266.582l81.422-128.066a14.95 14.95 0 0 1 6.683-5.711l56.364-24.489a15.056 15.056 0 0 1 7.523-.242l-87.289 124.66c-18.45 8.082-32.082 25.176-35.285 45.692-2.742 7.703-14.66 11.594-22.434 7.707-7.316-3.656-10.222-12.34-6.984-19.551zm0 0"
            fill="currentColor"
            data-original="#000000"></path>
        </g>
      </svg>