<svg
            xmlns="http://www.w3.org/2000/svg"
            version="1.1"
            xmlnsXlink="http://www.w3.org/1999/xlink"
            width="30"
            height="30"
            x="0"
            y="0"
            viewBox="0 0 48 48"
            xmlSpace="preserve">
            <g>
              <path
                d="M46.482 31.9a.712.712 0 0 0-.89-.072 21.203 21.203 0 0 1-11.563 3.413c-11.728 0-21.27-9.542-21.27-21.27 0-4.12 1.18-8.117 3.412-11.562.392-.604-.284-1.393-.939-1.092C6.738 5.159 1.25 13.662 1.25 22.979c0 13.107 10.663 23.771 23.77 23.771 9.318 0 17.82-5.488 21.663-13.982.144-.317.03-.66-.2-.869z"
                fill="#000000"
                data-original="#000000"></path>
              <path
                d="M21 9.75A5.256 5.256 0 0 1 26.25 15a.75.75 0 0 0 1.5 0A5.256 5.256 0 0 1 33 9.75a.75.75 0 0 0 0-1.5A5.256 5.256 0 0 1 27.75 3a.75.75 0 0 0-1.5 0A5.256 5.256 0 0 1 21 8.25a.75.75 0 0 0 0 1.5zM35 16.75A4.255 4.255 0 0 1 39.25 21a.75.75 0 0 0 1.5 0A4.255 4.255 0 0 1 45 16.75a.75.75 0 0 0 0-1.5A4.255 4.255 0 0 1 40.75 11a.75.75 0 0 0-1.5 0A4.255 4.255 0 0 1 35 15.25a.75.75 0 0 0 0 1.5zM31.75 21a.75.75 0 0 0-1.5 0A3.254 3.254 0 0 1 27 24.25a.75.75 0 0 0 0 1.5A3.254 3.254 0 0 1 30.25 29a.75.75 0 0 0 1.5 0A3.254 3.254 0 0 1 35 25.75a.75.75 0 0 0 0-1.5A3.254 3.254 0 0 1 31.75 21z"
                fill="#000000"
                data-original="#000000"></path>
            </g>
          </svg>