<svg
            xmlns="http://www.w3.org/2000/svg"
            version="1.1"
            xmlns:xlink="http://www.w3.org/1999/xlink"
            width="30"
            height="30"
            x="0"
            y="0"
            viewBox="0 0 64 64"
            xmlSpace="preserve">
            <g>
              <g fill="#fff600">
                <path
                  d="M59.002 29.005h-3.997a3 3 0 0 0 0 6.001h3.997a3 3 0 0 0 0-6zM31.975 51.999a3.003 3.003 0 0 0-2.999 3v4a2.998 2.998 0 1 0 5.997 0v-4a3.003 3.003 0 0 0-2.998-3zM11.993 32.006a3.003 3.003 0 0 0-2.998-3H4.999a3 3 0 0 0 0 6h3.996a3.003 3.003 0 0 0 2.998-3zM31.975 12.001a3.003 3.003 0 0 0 2.998-3v-4a2.998 2.998 0 1 0-5.996 0v4a3.003 3.003 0 0 0 2.998 3zM50.362 17.86l2.829-2.83a2.998 2.998 0 1 0-4.24-4.24l-2.83 2.829a2.998 2.998 0 1 0 4.24 4.24zM50.361 46.153a2.998 2.998 0 1 0-4.24 4.24l2.829 2.829a2.998 2.998 0 1 0 4.24-4.24zM13.587 46.152l-2.828 2.83a2.998 2.998 0 1 0 4.24 4.24l2.829-2.83a2.998 2.998 0 1 0-4.24-4.24zM13.588 17.859a2.998 2.998 0 1 0 4.24-4.24l-2.829-2.83a2.998 2.998 0 1 0-4.24 4.241z"
                  fill="#fff600"
                  data-original="#fff600"></path>
              </g>
              <circle cx="32" cy="32" r="17" fill="#efe40f" data-original="#efe40f"></circle>
              <path
                fill="#fff600"
                d="M44.85 27.16a16.99 16.99 0 0 1-27.6 13.28A16.763 16.763 0 0 1 15 32a16.99 16.99 0 0 1 27.6-13.28 16.763 16.763 0 0 1 2.25 8.44z"
                data-original="#fff600"></path>
            </g>
          </svg>